<svg width="22" height="22" viewBox="0 0 22 22" fill="none" xmlns="http://www.w3.org/2000/svg">
<path d="M20.0556 19.5556V13.9444H21.5V19.5556C21.5 20.0713 21.2951 20.5658 20.9305 20.9305C20.5658 21.2951 20.0713 21.5 19.5556 21.5H2.44444C1.92875 21.5 1.43417 21.2951 1.06951 20.9305C0.70486 20.5658 0.5 20.0713 0.5 19.5556V2.44444C0.5 1.92875 0.70486 1.43417 1.06951 1.06951C1.43417 0.70486 1.92875 0.5 2.44444 0.5H8.05556V1.94444H2.44444H1.94444V2.44444V19.5556V20.0556H2.44444H19.5556H20.0556V19.5556ZM16.6111 4.88889V5.38889H17.1111H21.5V6.83333H17.1111H16.6111V7.33333V11.7222H15.1667V7.33333V6.83333H14.6667H10.2778V5.38889H14.6667H15.1667V4.88889V0.5H16.6111V4.88889Z" fill="#1366D9" stroke="#1366D9"/>
</svg>
