<svg width="27" height="25" viewBox="0 0 27 25" fill="none" xmlns="http://www.w3.org/2000/svg">
<path d="M7 5V1.25C7 0.918479 7.13696 0.600537 7.38076 0.366116C7.62456 0.131696 7.95522 0 8.3 0H18.7C19.0448 0 19.3754 0.131696 19.6192 0.366116C19.863 0.600537 20 0.918479 20 1.25V5H26.5V7.5H23.9V23.75C23.9 24.0815 23.763 24.3995 23.5192 24.6339C23.2754 24.8683 22.9448 25 22.6 25H4.4C4.05522 25 3.72456 24.8683 3.48076 24.6339C3.23696 24.3995 3.1 24.0815 3.1 23.75V7.5H0.5V5H7ZM15.3382 15L17.6366 12.79L15.7984 11.0225L13.5 13.2325L11.2016 11.0225L9.3634 12.79L11.6618 15L9.3634 17.21L11.2016 18.9775L13.5 16.7675L15.7984 18.9775L17.6366 17.21L15.3382 15ZM9.6 2.5V5H17.4V2.5H9.6Z" fill="white"/>
</svg>
