<svg width="28" height="27" viewBox="0 0 28 27" fill="none" xmlns="http://www.w3.org/2000/svg">
<path d="M5.91174 6.88247H4.44116C3.66111 6.88247 2.91302 7.19234 2.36145 7.74392C1.80987 8.29549 1.5 9.04359 1.5 9.82363V23.0588C1.5 23.8389 1.80987 24.587 2.36145 25.1386C2.91302 25.6901 3.66111 26 4.44116 26H17.6764C18.4564 26 19.2045 25.6901 19.7561 25.1386C20.3077 24.587 20.6175 23.8389 20.6175 23.0588V21.5883M19.1469 3.94132L23.5587 8.35305M25.5954 6.27218C26.1746 5.693 26.5 4.90746 26.5 4.08837C26.5 3.26929 26.1746 2.48375 25.5954 1.90456C25.0163 1.32538 24.2307 1 23.4116 1C22.5925 1 21.807 1.32538 21.2278 1.90456L8.8529 14.2354V18.6471H13.2646L25.5954 6.27218Z" stroke="white" stroke-width="2" stroke-linecap="round" stroke-linejoin="round"/>
</svg>
