<svg width="22" height="22" viewBox="0 0 22 22" fill="none" xmlns="http://www.w3.org/2000/svg">
<path d="M10.9504 2.24951H10.9505C12.6342 2.24978 14.2825 2.73184 15.699 3.6385C17.1157 4.54517 18.241 5.83831 18.9406 7.36417C19.6403 8.89005 19.8847 10.5841 19.6447 12.2446C19.4047 13.905 18.6903 15.4615 17.5871 16.7288C16.4838 17.996 15.0382 18.9206 13.4226 19.3926C11.8069 19.8647 10.0891 19.8645 8.4736 19.3921C6.85807 18.9196 5.41267 17.9947 4.30973 16.7272C3.20676 15.4597 2.49278 13.9031 2.25314 12.2426L2.25307 12.2421C2.22023 12.0131 2.09727 11.8058 1.91042 11.6663C1.72349 11.5267 1.48811 11.4665 1.25613 11.4995C1.02418 11.5324 0.815485 11.6557 0.6756 11.8414C0.535824 12.0269 0.476006 12.2596 0.508771 12.4885L10.9504 2.24951ZM10.9504 2.24951C9.71473 2.24953 8.49288 2.50915 7.36471 3.01146C6.23654 3.51377 5.22735 4.24751 4.4032 5.16486L3.65378 5.99901H4.77514H6.80779C7.04213 5.99901 7.26643 6.09171 7.43146 6.25601C7.59641 6.42023 7.68867 6.64249 7.68867 6.87377C7.68867 7.10505 7.59641 7.32731 7.43146 7.49153C7.26643 7.65582 7.04213 7.74852 6.80779 7.74852H2.20486C1.71666 7.74852 1.32398 7.3544 1.32398 6.87377V1.37475C1.32398 1.14347 1.41625 0.921215 1.5812 0.756994C1.74623 0.592699 1.97052 0.5 2.20486 0.5C2.4392 0.5 2.6635 0.592699 2.82852 0.756994C2.99348 0.921215 3.08574 1.14347 3.08574 1.37475V2.80083V3.91546M10.9504 2.24951L3.08574 3.91546M3.08574 3.91546L3.91823 3.17427M3.08574 3.91546L3.91823 3.17427M3.91823 3.17427C5.67055 1.6141 7.8965 0.681142 10.2427 0.523963C12.589 0.366784 14.9205 0.994431 16.8672 2.30693C18.8138 3.6194 20.2638 5.54134 20.9875 7.7673C21.7113 9.99323 21.6673 12.396 20.8627 14.5943C20.0581 16.7926 18.5388 18.6607 16.5455 19.9018C14.5521 21.143 12.1991 21.6858 9.86015 21.4437C7.52122 21.2016 5.33089 20.1886 3.63679 18.5661C1.94278 16.9436 0.842033 14.8046 0.508804 12.4888L3.91823 3.17427ZM11.371 10.0815V10.5815H11.871H14.1725C14.4068 10.5815 14.6311 10.6742 14.7961 10.8385C14.9611 11.0027 15.0534 11.225 15.0534 11.4563C15.0534 11.6876 14.9611 11.9098 14.7961 12.074C14.6311 12.2383 14.4068 12.331 14.1725 12.331H10.4901C10.0019 12.331 9.60926 11.9369 9.60926 11.4563V6.87377C9.60926 6.64249 9.70152 6.42023 9.86648 6.25601C10.0315 6.09171 10.2558 5.99901 10.4901 5.99901C10.7245 5.99901 10.9488 6.09171 11.1138 6.25601C11.2788 6.42023 11.371 6.64249 11.371 6.87377V10.0815Z" fill="#1366D9" stroke="#1366D9"/>
</svg>
