<svg width="21" height="24" viewBox="0 0 21 24" fill="none" xmlns="http://www.w3.org/2000/svg">
<path d="M20 17.4219V9.8C20 5.6519 20 3.5773 18.6901 2.2892C17.3802 1.0011 15.2735 1 11.0588 1H9.94118C5.72653 1 3.61865 1 2.30988 2.2892C1.00112 3.5784 1 5.6519 1 9.8V20.25M1 20.25C1 19.5207 1.29438 18.8212 1.81838 18.3055C2.34238 17.7897 3.05307 17.5 3.79412 17.5H20C19.259 17.5 18.5483 17.7897 18.0243 18.3055C17.5003 18.8212 17.2059 19.5207 17.2059 20.25C17.2059 20.9793 17.5003 21.6788 18.0243 22.1945C18.5483 22.7103 19.259 23 20 23H3.79412C3.05307 23 2.34238 22.7103 1.81838 22.1945C1.29438 21.6788 1 20.9793 1 20.25ZM13.8529 6.5H7.14706M10.5 10.9H7.14706" stroke="#1366D9" stroke-width="1.5" stroke-linecap="round" stroke-linejoin="round"/>
</svg>
